<svg id="Capa_1" data-name="Capa 1" xmlns="http://www.w3.org/2000/svg" viewBox="0 0 211.2 249"><defs><style>.cls-1{fill:#d3af9b; opacity: 30%;}</style></defs><path class="cls-1" d="M196.9,18.7a14.82,14.82,0,0,1,7.4-3,14.82,14.82,0,0,1-3,7.4c-2.4,2.9-6.4,2.4-6.7,2.4h0S194.1,21.2,196.9,18.7Z" transform="translate(-4.2 -4.6)"/><path class="cls-1" d="M183.9,37.5c2.5.2,14.5.6,21.7-7.8,7.3-8.6,9.4-20.7,9.8-23.8" transform="translate(-4.2 -4.6)"/><path class="cls-1" d="M215.1,5.9c-3.1.4-15.2,2.5-23.8,9.9-8.3,7.2-8,19.2-7.8,21.7" transform="translate(-4.2 -4.6)"/><path class="cls-1" d="M46.4,12.4a10.48,10.48,0,0,1-5.2-2.2A10.48,10.48,0,0,1,46.4,8,5.59,5.59,0,0,1,51,10.2h0S49.1,12.6,46.4,12.4Z" transform="translate(-4.2 -4.6)"/><path class="cls-1" d="M50.6,10.2H96.4c30.2,0,36.6,10.6,36.9,11" transform="translate(-4.2 -4.6)"/><path class="cls-1" d="M207.6,213.2a10.48,10.48,0,0,0,2.2,5.2,10.48,10.48,0,0,0,2.2-5.2,5.59,5.59,0,0,0-2.2-4.6h0S207.4,210.5,207.6,213.2Z" transform="translate(-4.2 -4.6)"/><path class="cls-1" d="M198.8,86.4c.4.3,11,6.7,11,36.9v85.8" transform="translate(-4.2 -4.6)"/><path class="cls-1" d="M149,13.4a1.5,1.5,0,1,0-1.5-1.5A1.54,1.54,0,0,0,149,13.4Z" transform="translate(-4.2 -4.6)"/><path class="cls-1" d="M149.7,11.1a4.3,4.3,0,0,0-4-.8,5,5,0,0,0-3.9,3.8c-1,4.6,4.2,9.4,4.3,9.4" transform="translate(-4.2 -4.6)"/><path class="cls-1" d="M208.6,71a1.5,1.5,0,0,1,3,0,1.56,1.56,0,0,1-1.5,1.6A1.44,1.44,0,0,1,208.6,71Z" transform="translate(-4.2 -4.6)"/><path class="cls-1" d="M210.7,70.3c1.2.9,1.8,3.1,1.3,5.2a6.34,6.34,0,0,1-4.8,4.9,7.72,7.72,0,0,1-1.5.2c-4.7,0-8.9-4.7-9.1-4.9" transform="translate(-4.2 -4.6)"/><circle class="cls-1" cx="154.8" cy="36.8" r="2"/><path class="cls-1" d="M158.7,40c-1.4.1-2.6,2.3-2.5,4.4.1,1.2.7,3.9,4.9,3.9,7.2,0,7.6-8,7.6-8.3" transform="translate(-4.2 -4.6)"/><circle class="cls-1" cx="176.7" cy="57.5" r="2"/><path class="cls-1" d="M182.3,62.5c-.3,2.1-2.8,3.3-5.1,3.3h-.4c-2.6-.2-5.3-1.8-5.3-5.9,0-8.3,9.4-8.8,9.5-8.8" transform="translate(-4.2 -4.6)"/><circle class="cls-1" cx="194.3" cy="44.7" r="2"/><path class="cls-1" d="M163.8,56.3c.1,0,6.7-8.5,17.5-5.1,1.3.5,2.7.9,4.1,1.4,9.5,3.2,19.4,6.5,23.3-1.8,1.7-3.8.8-7.4-2.5-9.5-2.9-1.9-7.3-2.2-9.6.5a6.05,6.05,0,0,0-1.1,6.8c.7,1.4,1.8,2.3,2.8,2.2" transform="translate(-4.2 -4.6)"/><path class="cls-1" d="M147.8,72.3c18.8-1.1,18.4-18.4,18.4-18.4C145.9,56.3,147.9,72.3,147.8,72.3Z" transform="translate(-4.2 -4.6)"/><path class="cls-1" d="M174.3,50.1a4.4,4.4,0,1,0-4.4-4.4A4.44,4.44,0,0,0,174.3,50.1Z" transform="translate(-4.2 -4.6)"/><circle class="cls-1" cx="166.3" cy="18.1" r="2"/><path class="cls-1" d="M163.8,56.1c0-.1,7.9-6,4.8-16-.5-1.3-.9-2.7-1.4-4.1-3.3-9.5-6.9-20.4,2.4-24.8,5.6-2.6,9.8-.1,11.7,2.9,2.1,3.2,2.3,8.2-1.4,11.2a7.27,7.27,0,0,1-8.1,1.3,4.51,4.51,0,0,1-2.8-4" transform="translate(-4.2 -4.6)"/><path class="cls-1" d="M215.3,253.6V120.5c0-27.2-8.1-34.7-15.8-42-4.7-4.5-9.6-9.1-12.4-18-7.2-23.4,11.3-38.6,11.5-38.8" transform="translate(-4.2 -4.6)"/><path class="cls-1" d="M196.8,23.5c-4.5,4.4-17.6,14.9-35.7,9.3-8.7-2.6-13-7.2-17.5-12-7.5-8-15.2-16.2-42.9-16.2H4.2" transform="translate(-4.2 -4.6)"/></svg>