<svg id="Layer_2" data-name="Layer 2" xmlns="http://www.w3.org/2000/svg" viewBox="0 0 5000 1244.57"><defs><style>.cls-1{fill:none;}.cls-2{fill:#d3af9b;}</style></defs><rect class="cls-1" width="5000" height="1244.57"/><path class="cls-2" d="M2081.5,733.1A504.47,504.47,0,0,0,2039,697.91a343.37,343.37,0,0,0-31.51-20.6,259.14,259.14,0,0,0-38.85-18.45,222.83,222.83,0,0,0-45.82-11.93l-6.12-.86-6.21-.59c-4.15-.48-8.37-.52-12.61-.75a187,187,0,0,0-25.79,1.2c-4.35.38-8.67,1.25-13,2-2.18.41-4.33,1-6.5,1.44s-4.35,1-6.48,1.64l-6.45,1.9c-2.14.67-4.24,1.49-6.36,2.24-4.25,1.41-8.44,3.45-12.65,5.29a151.51,151.51,0,0,0-23.52,14.08,155.39,155.39,0,0,0-20.57,17.8,150.44,150.44,0,0,0-29.74,44.64,131.62,131.62,0,0,0-10.4,51.29,121,121,0,0,0,9.62,47.25,114.7,114.7,0,0,0,10.29,19.29c1.85,3,4,5.68,6,8.36,2.19,2.57,4.21,5.13,6.49,7.39,1.13,1.14,2.23,2.27,3.31,3.37l3.4,3.08c2.2,2,4.54,3.79,6.75,5.49a98.26,98.26,0,0,0,13.09,8.26,88,88,0,0,0,48.15,10.21,93,93,0,0,0,33.39-8.69,82.71,82.71,0,0,0,29.85-23.52,74,74,0,0,0,14.89-33.83,69.67,69.67,0,0,0-1.89-30.92,52.74,52.74,0,0,0-12-21.48,28.16,28.16,0,0,0-3.65-3.4,29.21,29.21,0,0,0-3.57-2.6,25.16,25.16,0,0,0-6.65-2.86c-4.14-.87-7-.17-8.8,1.72s-2.57,4.87-2.9,8.13c-.17,1.64-.45,3.54-.54,5.34-.07.91-.26,1.94-.36,2.9s-.19,1.92-.42,3a53.68,53.68,0,0,1-3.45,12.43,40.94,40.94,0,0,1-6.91,11.42,21.5,21.5,0,0,1-8.87,6.29,32.62,32.62,0,0,1-9.71,2.1,47.31,47.31,0,0,1-10-.32,62.34,62.34,0,0,1-8.31-1.77,51.59,51.59,0,0,1-5.32-1.5,27.65,27.65,0,0,1-4-1.78c-.75-.46-1.61-.83-2.42-1.43l-1.3-.82-1.31-1c-.94-.61-1.77-1.52-2.77-2.28-.87-.94-1.91-1.77-2.81-2.88a46,46,0,0,1-5.56-7.41,56.14,56.14,0,0,1-7.83-21.16,70.65,70.65,0,0,1,1.36-28A95.81,95.81,0,0,1,1816,725.93a109.06,109.06,0,0,1,26.58-26.24c2.72-1.66,5.28-3.56,8.27-5.05,1.46-.78,2.9-1.64,4.39-2.38l4.55-2.13c1.51-.76,3.08-1.36,4.66-2s3.14-1.29,4.75-1.86c3.25-1,6.46-2.26,9.82-3.06a151,151,0,0,1,20.44-4.15c3.49-.33,7-.87,10.48-1l5.27-.32,5.27-.07a196.53,196.53,0,0,1,41.42,4.2,239.55,239.55,0,0,1,38,11.29,331.69,331.69,0,0,1,32.85,14.8,503.51,503.51,0,0,1,46.76,27.68c5.48,3.62,9.75,6.52,12.63,8.51l4.44,3.06-3.9-3.72C2090.13,741.09,2086.37,737.55,2081.5,733.1Z"/><path class="cls-2" d="M1748.62,660.56a145.23,145.23,0,0,1,23.73-16.92c1.89-1,3.69-2.15,5.47-3l5.07-2.5c3.23-1.49,6.12-2.64,8.5-3.66l7.64-2.74-8.19-.47c-2.61,0-5.84-.07-9.56.06l-5.94.34c-2.12.1-4.3.44-6.63.68a159.45,159.45,0,0,0-31.77,7.23,167.75,167.75,0,0,0-35.49,16.89c-3,1.77-5.75,3.86-8.66,5.83s-5.57,4.26-8.37,6.43c-2.64,2.32-5.36,4.59-7.93,7s-5.1,4.87-7.43,7.46A172.55,172.55,0,0,0,1645.64,715c-1.44,2.64-3,5.19-4.19,7.73l-3.54,7.36c-2,4.8-3.93,9.19-5.19,13.15-.68,2-1.29,3.86-1.84,5.49s-.9,3.26-1.26,4.64a51.64,51.64,0,0,0-1.33,6.2,58.54,58.54,0,0,0-.15,9.11,85.75,85.75,0,0,0,1.7,10.73,74.68,74.68,0,0,0,9,21.75,53,53,0,0,0,6.81,8.88,37.6,37.6,0,0,0,7.7,6.39c5.37,3.28,10.75,4.47,15.83,3.18s9.41-4.82,13.09-9.14a77.5,77.5,0,0,0,5.28-7.05c1.57-2.47,3.23-5.07,4.67-7.65a159.13,159.13,0,0,0,7.49-15,50.92,50.92,0,0,0,2.51-6.5,22.9,22.9,0,0,0,1.34-5.45c.06-.81.17-2.11.14-3.88,0-.85,0-1.85,0-3s0-2.29,0-3.62c-.07-2.65.2-5.63.3-9,.15-1.68.31-3.44.48-5.29s.51-3.74.75-5.74a126.47,126.47,0,0,1,6.82-26.12c.82-2.34,1.93-4.56,2.9-6.94s2.27-4.6,3.43-7c1.32-2.25,2.58-4.62,4-6.9s2.86-4.59,4.49-6.74A140.42,140.42,0,0,1,1748.62,660.56Z"/><path class="cls-2" d="M4689.4,513.3c-2.07-1.61-8.62,2.37-18.58,10.67-5,4.09-11.24,9-18.06,14.95L4641.49,548l-6.06,5-6.57,5.06a658.55,658.55,0,0,1-64.55,45,669.45,669.45,0,0,1-84.73,43.53c-61.84,26.85-133.42,45.64-201.6,55.59-34.1,5-67.33,8-98.13,9.61s-59.16,1.73-83.65,1.33l-10.36-.15-13-.4c-9.53-.21-20.71-.82-33.52-1.53l-43.25-3.31-25-2.65c-8.68-.92-17.73-1.77-27.1-3.14l-29.13-3.87c-5-.61-10.12-1.52-15.3-2.31l-15.76-2.49-16.24-2.56-16.67-3-17.11-3.07c-5.78-1-11.63-2.06-17.54-3.28-47.34-8.95-99.08-20.51-154.46-33.42s-114.4-27.39-176.52-41.63c-15.48-3.64-31.29-7-47.16-10.57-7.93-1.79-16-3.46-24-5.14l-24.27-5.08c-16.27-3.33-32.78-6.39-49.34-9.64-16.64-3.08-33.51-6-50.62-8.61-34.19-5.27-69.46-9.14-105.49-10.09s-72.8,1.3-109.39,8.55a382.82,382.82,0,0,0-54,14.84,350.87,350.87,0,0,0-51.47,23.18l-6.2,3.43c-2.06,1.18-4.05,2.48-6.07,3.71-4,2.53-8.11,4.91-12,7.71l-5.35,3.72c-.22.2-.74.56-1.12.84l-1.19.95c-1.58,1.3-3.22,2.56-4.79,3.94a124.5,124.5,0,0,0-18,19.25l-1.11,1.42c-.27.45-.18,0-.18-.26l0-.77.1-3.14c.07-2.1,0-4.24,0-6.4-.08-4.32-.27-8.75-.67-13.27-.23-2.26-.4-4.55-.74-6.86s-.6-4.59-1-7l-.47-3c-.19-1.2-.34-2.39-.58-3.58l-1.37-7.12c-.83-4.76-2.07-9.46-3.14-14.17a261,261,0,0,0-19.9-54.64l-3.3-6.51c-1.16-2.14-2.41-4.24-3.61-6.35s-2.38-4.24-3.71-6.28l-4-6.12c-2.54-4.12-5.68-8-8.57-11.93-1.43-2-3-3.83-4.64-5.69l-4.77-5.56a198.5,198.5,0,0,0-44.7-36.8,183.33,183.33,0,0,0-53.09-21.77,69.77,69.77,0,0,0-7.05-1.41l-7.09-1.21c-2.37-.38-4.78-.48-7.16-.72s-4.77-.45-7.16-.59l-7.2,0h-5.38l-1.79.15-7.15.62-3.57.33c-1.18.13-2.35.39-3.53.59-4.71.91-9.37,1.51-14.08,2.89a120.84,120.84,0,0,0-13.69,4.59,127.32,127.32,0,0,0-24.94,13.46,140.6,140.6,0,0,0-38.17,39.54,127,127,0,0,0-19.18,50.42,101.75,101.75,0,0,0,6.27,52.84q1.29,3,2.6,6c.93,2,2,3.84,3,5.75.51,1,1,1.92,1.53,2.84l1.68,2.73c1.14,1.79,2.19,3.66,3.41,5.37a177.47,177.47,0,0,0,15.53,19.41,321.17,321.17,0,0,0,35,31.64c12,9.52,23.89,18.37,35.23,27.3,5.7,4.45,11.17,9,16.51,13.54s10.38,9.26,15,14.19c2.42,2.39,4.51,5,6.76,7.45l3.07,3.88,1.53,1.93,1.39,2c.61.84,1.17,1.69,1.74,2.54a149.12,149.12,0,0,1-33.6,26.91,134.71,134.71,0,0,1-16.76,8.43c-2.86,1.26-6,2.24-8.91,3.38s-6,2-9.09,2.94a194,194,0,0,1-37,7.18,252.36,252.36,0,0,1-35.86.81,294.78,294.78,0,0,1-32.32-3.48,357.15,357.15,0,0,1-47.7-11.17c-4.11-1.2-7.52-2.33-10.24-3.25l-2-2.2,1.83,2.13-2.67-.9-4-1.36.37-.2-.48.16-.48-.16.37.2-4,1.36-2.67.9,1.83-2.13-2,2.2c-2.72.92-6.13,2-10.24,3.25a357.15,357.15,0,0,1-47.7,11.17,294.78,294.78,0,0,1-32.32,3.48,252.36,252.36,0,0,1-35.86-.81,194,194,0,0,1-37-7.18c-3-.91-6.12-1.74-9.09-2.94s-6.05-2.12-8.91-3.38a134.71,134.71,0,0,1-16.76-8.43,149.12,149.12,0,0,1-33.6-26.91c.57-.85,1.13-1.7,1.74-2.54l1.39-2,1.53-1.93,3.07-3.88c2.25-2.47,4.34-5.06,6.76-7.45,4.62-4.93,9.79-9.55,15-14.19s10.81-9.09,16.51-13.54c11.34-8.93,23.28-17.78,35.23-27.3a321.17,321.17,0,0,0,35-31.64,177.47,177.47,0,0,0,15.53-19.41c1.22-1.71,2.27-3.58,3.41-5.37l1.68-2.73c.54-.92,1-1.89,1.53-2.84,1-1.91,2-3.8,3-5.75s1.74-4,2.6-6a101.75,101.75,0,0,0,6.27-52.84,127,127,0,0,0-19.18-50.42,140.6,140.6,0,0,0-38.17-39.54,127.32,127.32,0,0,0-24.94-13.46,120.84,120.84,0,0,0-13.69-4.59c-4.71-1.38-9.37-2-14.08-2.89-1.18-.2-2.35-.46-3.53-.59l-3.57-.33-7.15-.62-1.79-.15h-5.38l-7.2,0c-2.39.14-4.77.39-7.16.59s-4.79.34-7.16.72l-7.09,1.21a69.77,69.77,0,0,0-7.05,1.41,183.33,183.33,0,0,0-53.09,21.77,198.5,198.5,0,0,0-44.7,36.8l-4.77,5.56c-1.59,1.86-3.21,3.69-4.64,5.69-2.89,3.95-6,7.81-8.57,11.93l-4,6.12c-1.33,2-2.47,4.19-3.71,6.28s-2.45,4.21-3.61,6.35l-3.3,6.51a261,261,0,0,0-19.9,54.64c-1.07,4.71-2.31,9.41-3.14,14.17l-1.37,7.12c-.24,1.19-.39,2.38-.58,3.58l-.47,3c-.44,2.44-.75,4.7-1,7s-.51,4.6-.74,6.86c-.4,4.52-.59,9-.67,13.27,0,2.16,0,4.3,0,6.4l.1,3.14,0,.77c0,.23.09.71-.18.26l-1.11-1.42a124.5,124.5,0,0,0-18-19.25c-1.57-1.38-3.21-2.64-4.79-3.94l-1.19-.95c-.38-.28-.9-.64-1.12-.84l-5.35-3.72c-3.86-2.8-7.95-5.18-12-7.71-2-1.23-4-2.53-6.07-3.71l-6.2-3.43A350.87,350.87,0,0,0,1979,580.6a382.82,382.82,0,0,0-54-14.84c-36.59-7.25-73.36-9.52-109.39-8.55s-71.3,4.82-105.49,10.09c-17.11,2.62-34,5.53-50.62,8.61-16.56,3.25-33.07,6.31-49.34,9.64l-24.27,5.08c-8.05,1.68-16.08,3.35-24,5.14-15.87,3.56-31.68,6.93-47.16,10.57-62.12,14.24-121.13,28.72-176.52,41.63s-107.12,24.47-154.46,33.42c-5.91,1.22-11.76,2.25-17.54,3.28l-17.11,3.07-16.67,3-16.24,2.56-15.76,2.49c-5.18.79-10.27,1.7-15.3,2.31L1056,702c-9.37,1.37-18.42,2.22-27.1,3.14l-25,2.65-43.25,3.31c-12.81.71-24,1.32-33.52,1.53l-13,.4-10.36.15c-24.49.4-52.85.26-83.65-1.33s-64-4.6-98.13-9.61c-68.18-10-139.76-28.74-201.6-55.59a669.45,669.45,0,0,1-84.73-43.53,658.55,658.55,0,0,1-64.55-45l-6.57-5.06-6.06-5-11.27-9.12c-6.82-5.94-13-10.86-18.06-14.95-10-8.3-16.51-12.28-18.58-10.67s.47,8.76,6.9,20.54c3.28,5.84,7.84,12.57,13.19,20.42,2.78,3.83,5.9,7.8,9.19,12l5.13,6.52c1.82,2.18,3.75,4.36,5.7,6.61a464.17,464.17,0,0,0,60.45,58.24,584.57,584.57,0,0,0,85.65,57.09c63.93,35.57,140.13,61.61,213.07,76.27A919.09,919.09,0,0,0,815.13,786c33.09,2.76,63.6,3.47,89.92,3l11.13-.22,13.94-.58c10.21-.38,22.25-1.25,35.91-2.28,13.56-1.33,28.81-2.75,45.57-4.51l26.16-3.41c9.09-1.2,18.57-2.34,28.29-4l30.28-4.84c5.23-.78,10.46-1.86,15.82-2.83l16.27-3,16.75-3.12,17.11-3.55,17.54-3.67c5.93-1.22,11.93-2.47,17.94-3.88,48.38-10.59,100.64-23.91,156.06-38.6s113.91-31,174.94-47c15.26-4.1,30.68-7.89,46.25-11.9,7.78-2,15.61-3.91,23.47-5.81l23.7-5.74c15.86-3.78,31.9-7.27,48-11q24.22-5.3,48.67-9.9c32.61-6.09,65.59-10.74,98.75-12.69a488.6,488.6,0,0,1,49.75-.52,403.11,403.11,0,0,1,49.31,5,338.62,338.62,0,0,1,48.12,11.53,308.46,308.46,0,0,1,45.67,18.79l5.49,2.8c1.82,1,3.56,2,5.35,3,3.53,2.07,7.17,4,10.54,6.32l5.66,3.68c1.62,1,2.88,2,4.31,3s2.74,2.19,4.1,3.28l8.15,6.61,4.07,3.29,2,1.65c.68.66,1.36,1.42,2,2.12l16.29,17.1,16.84,19,16.37,19,2,2.36,1.93,2.27,3.62,4.32,7.21,8.63.77-2.62c.21-.2,0-1.4,0-2.33l-.2-2.9-.82-11.55-1.49-23.72c-.85-16-1.8-32.12-2.09-47.19,0-7.36-.32-15,.27-21.74l.59-10.4c.26-3.42.62-6.83,1-10.1l.47-3.8c.13-1.06.22-2.14.41-3.2l1-6.35c.58-4.27,1.56-8.42,2.36-12.62A226.74,226.74,0,0,1,2144.54,543l2.64-5.69c.93-1.87,2-3.69,2.92-5.54s1.9-3.71,3-5.49l3.23-5.32c2.06-3.66,4.56-6.84,6.85-10.25a61,61,0,0,1,3.72-4.88l3.84-4.81c21.2-25,49.85-43.84,80.62-52.11a53,53,0,0,1,5.8-1.36l5.82-1.21c1.94-.39,3.9-.5,5.85-.78s3.91-.51,5.86-.69l5.87-.2,2.93-.11,1.47-.06,1.45.09,5.83.31,2.92.15c1,.07,1.91.27,2.87.4,3.8.63,7.76,1,11.36,1.92a94.84,94.84,0,0,1,10.88,3.23,102.43,102.43,0,0,1,20.43,10.16c25.74,16.55,44.82,43.79,49.95,72.67a81,81,0,0,1-3.56,42.41l-2,5c-.73,1.65-1.57,3.26-2.34,4.9-.4.81-.76,1.64-1.19,2.44l-1.36,2.36c-.94,1.57-1.75,3.19-2.77,4.71A157.7,157.7,0,0,1,2364.26,613a303.72,303.72,0,0,1-32.08,30.95c-11.32,9.67-22.94,18.9-34.2,28.41-5.65,4.72-11.17,9.61-16.57,14.55S2270.82,697,2266,702.5c-2.5,2.64-4.73,5.57-7.06,8.35-1.09,1.47-2.18,2.93-3.26,4.4l-1.62,2.2-1.22,1.89a131.7,131.7,0,0,1-9.15-13.43,116.52,116.52,0,0,1-7.45-14.8,99.84,99.84,0,0,1-5-14.67,89.21,89.21,0,0,1-2.82-27.17c0-1,.13-2.07.23-3.08s.14-2,.31-3c.32-2,.54-3.94,1-5.65a64,64,0,0,1,2.87-9.68,41.12,41.12,0,0,1,7.46-12.62,19.88,19.88,0,0,1,5.77-4.49,7.93,7.93,0,0,1,1-.44,3.31,3.31,0,0,1,.39-.19.55.55,0,0,0,.13,0,.17.17,0,0,0,.16,0,.49.49,0,0,0,.25,0,27.57,27.57,0,0,1,3-1.28c1.45-.53,3.27-.92,4.66-1.37a4.29,4.29,0,0,0,1.62-.84,2.94,2.94,0,0,0,.37-.32,6.69,6.69,0,0,1,.68-.63,5.47,5.47,0,0,0,.52-.41c.08-.06.27-.17.36-.22l.23-.1,3.71-1.51c1,1.62,1.26,4.6.89,7.26a29.91,29.91,0,0,1-2.38,8.45,17.4,17.4,0,0,1-5.38,6.58c-2.3,1.84-4.76,3.3-6.07,5.62a6.59,6.59,0,0,0-.86,3.91,9.31,9.31,0,0,0,.55,2.39,13.19,13.19,0,0,0,1.42,2.54,16.14,16.14,0,0,0,2.39,2.6,21.79,21.79,0,0,0,3.46,2.38,27.17,27.17,0,0,0,9.94,3c7.79.92,17-1.11,25.43-6a52.53,52.53,0,0,0,12-9.72,54,54,0,0,0,9.72-14.86,51.08,51.08,0,0,0,2.73-32.84c-.26-1-.53-2-.82-3l-.88-2.55q-.93-2.55-2-5.09a63.69,63.69,0,0,0-12.34-17.83,70.69,70.69,0,0,0-16.25-12.34c-23-12.3-47.06-11.3-64.58-4.35q-1.65.65-3.75,1.56t-4.64,2.45l-2.62,1.49c-.86.52-1.61,1.06-2.46,1.63-1.63,1.16-3.48,2.33-5.21,3.79a92.43,92.43,0,0,0-21.32,24.16,111.78,111.78,0,0,0-13.89,35.77,130.33,130.33,0,0,0-2.5,20.7c-.19,3.63-.08,7.12,0,10.71,0,1.79.22,3.59.33,5.41s.25,3.64.51,5.46a149.69,149.69,0,0,0,12.08,44,156.41,156.41,0,0,0,11.16,20.78,168.38,168.38,0,0,0,14.1,19.17,185.65,185.65,0,0,0,35,31.9,20.42,20.42,0,0,0,0,2.07l.3,5.21c.06.87.07,1.73.18,2.6l.37,2.59a76.48,76.48,0,0,0,16.1,36.68,96.49,96.49,0,0,0,28.72,24,118.63,118.63,0,0,0,16.15,7.5,125.7,125.7,0,0,0,16.5,4.86,118,118,0,0,0,16.43,2.47,110.33,110.33,0,0,0,16,.23,102.28,102.28,0,0,0,15.33-1.93c2.5-.46,4.9-1.12,7.27-1.77s4.75-1.18,7-2l6.75-2.33c2.24-.72,4.34-1.76,6.47-2.61,4.3-1.67,8.27-3.78,12.22-5.7,2-1,3.81-2.11,5.69-3.13s3.73-2,5.47-3.19c3.5-2.27,7-4.33,10.18-6.68a275.59,275.59,0,0,0,32.39-26.75c8.83-8.42,15.94-16,21.57-22.17,2.85-3.08,5.3-5.86,7.4-8.26s3.88-4.42,5.29-6.07c2.17-1.16,4-2.17,5.46-3l3.79-2.08,3.79,2.08c1.47.8,3.29,1.81,5.46,3,1.41,1.65,3.17,3.68,5.29,6.07s4.55,5.18,7.4,8.26c5.63,6.22,12.74,13.75,21.57,22.17a275.59,275.59,0,0,0,32.39,26.75c3.18,2.35,6.68,4.41,10.18,6.68,1.74,1.16,3.63,2.1,5.47,3.19s3.72,2.18,5.69,3.13c4,1.92,7.92,4,12.22,5.7,2.13.85,4.23,1.89,6.47,2.61l6.75,2.33c2.27.81,4.66,1.31,7,2s4.77,1.31,7.27,1.77a102.28,102.28,0,0,0,15.33,1.93,110.33,110.33,0,0,0,16-.23,118,118,0,0,0,16.43-2.47,125.7,125.7,0,0,0,16.5-4.86,118.63,118.63,0,0,0,16.15-7.5,96.49,96.49,0,0,0,28.72-24,76.48,76.48,0,0,0,16.1-36.68l.37-2.59c.11-.87.12-1.73.18-2.6l.3-5.21a20.42,20.42,0,0,0,0-2.07,185.65,185.65,0,0,0,35-31.9,168.38,168.38,0,0,0,14.1-19.17,156.41,156.41,0,0,0,11.16-20.78,149.69,149.69,0,0,0,12.08-44c.26-1.82.37-3.65.51-5.46s.3-3.62.33-5.41c.07-3.59.18-7.08,0-10.71a130.33,130.33,0,0,0-2.5-20.7,111.55,111.55,0,0,0-13.89-35.77,92.43,92.43,0,0,0-21.32-24.16c-1.73-1.46-3.58-2.63-5.21-3.79-.85-.57-1.6-1.11-2.46-1.63l-2.62-1.49q-2.52-1.39-4.64-2.45t-3.75-1.56c-17.52-6.95-41.62-7.95-64.58,4.35a70.43,70.43,0,0,0-16.24,12.34,63.52,63.52,0,0,0-12.35,17.83q-1,2.54-2,5.09l-.88,2.55c-.29,1-.56,2-.82,3a51.08,51.08,0,0,0,2.73,32.84,54,54,0,0,0,9.72,14.86,52.53,52.53,0,0,0,12,9.72c8.44,4.94,17.64,7,25.43,6a27.17,27.17,0,0,0,9.94-3,21.79,21.79,0,0,0,3.46-2.38,16.14,16.14,0,0,0,2.39-2.6,13.19,13.19,0,0,0,1.42-2.54,9.31,9.31,0,0,0,.55-2.39,6.59,6.59,0,0,0-.86-3.91c-1.31-2.32-3.77-3.78-6.07-5.62a17.4,17.4,0,0,1-5.38-6.58,29.91,29.91,0,0,1-2.38-8.45c-.37-2.66-.15-5.64.89-7.26l3.71,1.51.23.1c.09.05.28.16.36.22a5.47,5.47,0,0,0,.52.41,6.69,6.69,0,0,1,.68.63,2.94,2.94,0,0,0,.37.32,4.29,4.29,0,0,0,1.62.84c1.39.45,3.21.84,4.66,1.37a27.57,27.57,0,0,1,3,1.28.49.49,0,0,0,.25,0,.17.17,0,0,0,.16,0,.55.55,0,0,0,.13,0,3.31,3.31,0,0,1,.39.19,7.93,7.93,0,0,1,1,.44,19.88,19.88,0,0,1,5.77,4.49,41.12,41.12,0,0,1,7.46,12.62,64,64,0,0,1,2.87,9.68c.41,1.71.63,3.68,1,5.65.17,1,.19,2,.31,3s.23,2,.23,3.08a89.21,89.21,0,0,1-2.82,27.17,99.84,99.84,0,0,1-5,14.67,116.52,116.52,0,0,1-7.45,14.8,131.7,131.7,0,0,1-9.15,13.43l-1.22-1.89-1.62-2.2c-1.08-1.47-2.17-2.93-3.26-4.4-2.33-2.78-4.56-5.71-7.06-8.35-4.83-5.51-10.1-10.55-15.42-15.62s-10.92-9.83-16.57-14.55c-11.26-9.51-22.88-18.74-34.2-28.41A303.72,303.72,0,0,1,2635.74,613a157.7,157.7,0,0,1-13.19-17.66c-1-1.52-1.83-3.14-2.77-4.71l-1.36-2.36c-.43-.8-.79-1.63-1.19-2.44-.77-1.64-1.61-3.25-2.34-4.9l-2-5a81,81,0,0,1-3.56-42.41c5.13-28.88,24.21-56.12,49.95-72.67a102.43,102.43,0,0,1,20.43-10.16,94.84,94.84,0,0,1,10.88-3.23c3.6-1,7.56-1.29,11.36-1.92,1-.13,1.91-.33,2.87-.4l2.92-.15,5.83-.31,1.45-.09,1.47.06,2.93.11,5.87.2c1.95.18,3.9.47,5.86.69s3.91.39,5.85.78l5.82,1.21a53,53,0,0,1,5.8,1.36c30.77,8.27,59.42,27.1,80.62,52.11l3.84,4.81a61,61,0,0,1,3.72,4.88c2.29,3.41,4.79,6.59,6.85,10.25l3.23,5.32c1.09,1.78,2,3.67,3,5.49s2,3.67,2.92,5.54l2.64,5.69a226.74,226.74,0,0,1,15.71,48.13c.8,4.2,1.78,8.35,2.36,12.62l1,6.35c.19,1.06.28,2.14.41,3.2l.47,3.8c.42,3.27.78,6.68,1,10.1l.59,10.4c.59,6.78.28,14.38.27,21.74-.29,15.07-1.24,31.2-2.09,47.19l-1.49,23.72-.82,11.55-.2,2.9c0,.93-.21,2.13,0,2.33l.77,2.62,7.21-8.63,3.62-4.32,1.93-2.27,2-2.36,16.37-19,16.84-19,16.29-17.1c.68-.7,1.36-1.46,2-2.12l2-1.65,4.07-3.29,8.15-6.61c1.36-1.09,2.71-2.25,4.1-3.28s2.69-2,4.31-3l5.66-3.68c3.37-2.31,7-4.25,10.54-6.32,1.79-1,3.53-2.08,5.35-3l5.49-2.8a308.46,308.46,0,0,1,45.67-18.79,338.62,338.62,0,0,1,48.12-11.53,403.11,403.11,0,0,1,49.31-5,488.6,488.6,0,0,1,49.75.52c33.16,1.95,66.14,6.6,98.75,12.69q24.45,4.56,48.67,9.9c16.13,3.7,32.17,7.19,48,11l23.7,5.74c7.86,1.9,15.69,3.79,23.47,5.81,15.57,4,31,7.8,46.25,11.9,61,16,119.53,32.28,174.94,47s107.68,28,156.06,38.6c6,1.41,12,2.66,17.94,3.88l17.54,3.67,17.11,3.55,16.75,3.12,16.27,3c5.36,1,10.59,2.05,15.82,2.83L3934,774c9.72,1.67,19.2,2.81,28.29,4l26.16,3.41c16.76,1.76,32,3.18,45.57,4.51,13.66,1,25.7,1.9,35.91,2.28l13.94.58L4095,789c26.32.44,56.83-.27,89.92-3A919.09,919.09,0,0,0,4290.12,771c72.94-14.66,149.14-40.7,213.07-76.27a584.57,584.57,0,0,0,85.65-57.09,464.17,464.17,0,0,0,60.45-58.24c1.95-2.25,3.88-4.43,5.7-6.61l5.13-6.52c3.29-4.25,6.41-8.22,9.19-12,5.35-7.85,9.91-14.58,13.19-20.42C4688.93,522.06,4691.46,514.91,4689.4,513.3ZM2259,605.05l.05,0-.07,0S2258.9,605.12,2259,605.05Zm226.05,164.78c-2.18,2.33-4.73,5-7.67,8-5.83,6-13.18,13.28-22.25,21.34a272.88,272.88,0,0,1-33,25.37c-3.2,2.21-6.72,4.11-10.22,6.22-1.74,1.08-3.63,1.94-5.47,2.94s-3.7,2-5.66,2.87c-3.91,1.74-7.85,3.66-12.07,5.14-2.1.75-4.17,1.69-6.36,2.31l-6.6,2c-2.22.71-4.54,1.11-6.83,1.69s-4.63,1.11-7,1.45a96.2,96.2,0,0,1-14.55,1.33,103.36,103.36,0,0,1-15.14-.73,110.39,110.39,0,0,1-15.4-2.86,119,119,0,0,1-15.32-5.08,112.6,112.6,0,0,1-14.78-7.48,87.76,87.76,0,0,1-25.32-22.61,66.21,66.21,0,0,1-12.92-32.22l-.24-2.22c0-.47-.05-.94-.05-1.42a188.54,188.54,0,0,0,30.83,15,171.41,171.41,0,0,0,22.44,6.84c3.78.92,7.5,1.46,11.2,2.19s7.42,1.15,11.1,1.6a220.58,220.58,0,0,0,42.81.91,270.62,270.62,0,0,0,38.49-5.76,306.78,306.78,0,0,0,32.8-9.41,360.39,360.39,0,0,0,46-19.65c2.29-1.13,4.34-2.19,6.17-3.17C2488.76,765.94,2487.09,767.73,2485.09,769.83ZM2741,605.07l-.07,0,.05,0C2741.1,605.12,2741,605.08,2741,605.07Zm10.73,170.83c0,.48,0,1-.05,1.42l-.24,2.22a66.21,66.21,0,0,1-12.92,32.22,87.76,87.76,0,0,1-25.32,22.61,112.6,112.6,0,0,1-14.78,7.48,119,119,0,0,1-15.32,5.08,110.39,110.39,0,0,1-15.4,2.86,103.36,103.36,0,0,1-15.14.73,96.2,96.2,0,0,1-14.55-1.33c-2.37-.34-4.69-.9-7-1.45s-4.61-1-6.83-1.69l-6.6-2c-2.19-.62-4.26-1.56-6.36-2.31-4.22-1.48-8.16-3.4-12.07-5.14-2-.86-3.79-1.93-5.66-2.87s-3.73-1.86-5.47-2.94c-3.5-2.11-7-4-10.22-6.22a272.88,272.88,0,0,1-33-25.37c-9.07-8.06-16.42-15.34-22.25-21.34-2.94-3-5.49-5.67-7.67-8-2-2.1-3.67-3.89-5.06-5.41,1.83,1,3.88,2,6.17,3.17a360.39,360.39,0,0,0,46,19.65,306.78,306.78,0,0,0,32.8,9.41,270.62,270.62,0,0,0,38.49,5.76,220.58,220.58,0,0,0,42.81-.91c3.68-.45,7.41-.83,11.1-1.6s7.42-1.27,11.2-2.19a171.41,171.41,0,0,0,22.44-6.84A188.54,188.54,0,0,0,2751.71,775.9Z"/><path class="cls-2" d="M3223.49,692.28a155.39,155.39,0,0,0-20.57-17.8,151.51,151.51,0,0,0-23.52-14.08c-4.21-1.84-8.4-3.88-12.65-5.29-2.12-.75-4.22-1.57-6.36-2.24l-6.45-1.9c-2.13-.67-4.31-1.15-6.48-1.64s-4.32-1-6.5-1.44c-4.36-.71-8.68-1.58-13-2a187,187,0,0,0-25.79-1.2c-4.24.23-8.46.27-12.61.75l-6.21.59-6.12.86a222.83,222.83,0,0,0-45.82,11.93,259.14,259.14,0,0,0-38.85,18.45,343.37,343.37,0,0,0-31.51,20.6,504.47,504.47,0,0,0-42.52,35.19c-4.87,4.45-8.63,8-11.17,10.42l-3.9,3.72,4.44-3.06c2.88-2,7.15-4.89,12.63-8.51A503.51,503.51,0,0,1,2967.26,708a331.69,331.69,0,0,1,32.85-14.8,239.55,239.55,0,0,1,38-11.29,196.53,196.53,0,0,1,41.42-4.2l5.27.07,5.27.32c3.51.12,7,.66,10.48,1a151,151,0,0,1,20.44,4.15c3.36.8,6.57,2,9.82,3.06,1.61.57,3.17,1.25,4.75,1.86s3.16,1.22,4.66,2l4.55,2.13c1.49.74,2.93,1.6,4.39,2.38,3,1.49,5.55,3.39,8.27,5.05A109.06,109.06,0,0,1,3184,725.93a95.81,95.81,0,0,1,14.33,30.62,70.65,70.65,0,0,1,1.36,28,56.14,56.14,0,0,1-7.83,21.16,46,46,0,0,1-5.56,7.41c-.9,1.11-1.94,1.94-2.81,2.88-1,.76-1.83,1.67-2.77,2.28l-1.31,1-1.3.82c-.81.6-1.67,1-2.42,1.43a27.65,27.65,0,0,1-4,1.78,51.59,51.59,0,0,1-5.32,1.5,62.34,62.34,0,0,1-8.31,1.77,47.31,47.31,0,0,1-10,.32,32.62,32.62,0,0,1-9.71-2.1,21.5,21.5,0,0,1-8.87-6.29,40.94,40.94,0,0,1-6.91-11.42,53.68,53.68,0,0,1-3.45-12.43c-.23-1-.3-2-.42-3s-.29-2-.36-2.9c-.09-1.8-.37-3.7-.54-5.34-.33-3.26-1.09-6.25-2.9-8.13s-4.66-2.59-8.8-1.72a25.16,25.16,0,0,0-6.65,2.86,29.21,29.21,0,0,0-3.57,2.6,28.16,28.16,0,0,0-3.65,3.4,52.74,52.74,0,0,0-12,21.48,69.67,69.67,0,0,0-1.89,30.92,74,74,0,0,0,14.89,33.83,82.71,82.71,0,0,0,29.85,23.52,93,93,0,0,0,33.39,8.69,88,88,0,0,0,48.15-10.21,98.26,98.26,0,0,0,13.09-8.26c2.21-1.7,4.55-3.46,6.75-5.49l3.4-3.08c1.08-1.1,2.18-2.23,3.31-3.37,2.28-2.26,4.3-4.82,6.49-7.39,2-2.68,4.17-5.4,6-8.36A114.7,114.7,0,0,0,3254,835.46a121,121,0,0,0,9.62-47.25,131.62,131.62,0,0,0-10.4-51.29A150.44,150.44,0,0,0,3223.49,692.28Z"/><path class="cls-2" d="M2492.2,605.69a20.16,20.16,0,0,1,15.6,0c20.94-.55,36.89-40.28,36.43-57.66s-43.32-204.59-43.32-204.59-.33,1.89-.91,5.26c-.58-3.37-.91-5.26-.91-5.26S2456.22,530.65,2455.77,548,2471.26,605.14,2492.2,605.69Z"/><path class="cls-2" d="M3370.38,753.35c-.36-1.38-.76-2.94-1.26-4.64s-1.16-3.47-1.84-5.49c-1.26-4-3.17-8.35-5.19-13.15l-3.54-7.36c-1.23-2.54-2.75-5.09-4.19-7.73a172.55,172.55,0,0,0-23.42-31.77c-2.33-2.59-5-5-7.43-7.46s-5.29-4.69-7.93-7c-2.8-2.17-5.52-4.38-8.37-6.43s-5.67-4.06-8.66-5.83a167.75,167.75,0,0,0-35.49-16.89,159.45,159.45,0,0,0-31.77-7.23c-2.33-.24-4.51-.58-6.63-.68l-5.94-.34c-3.72-.13-6.95-.05-9.56-.06l-8.19.47,7.64,2.74c2.38,1,5.27,2.17,8.5,3.66l5.07,2.5c1.78.84,3.58,2,5.47,3a145.23,145.23,0,0,1,23.73,16.92,140.42,140.42,0,0,1,21.73,24.06c1.63,2.15,3,4.54,4.49,6.74s2.67,4.65,4,6.9c1.16,2.38,2.38,4.65,3.43,7s2.08,4.6,2.9,6.94a126.47,126.47,0,0,1,6.82,26.12c.24,2,.6,3.87.75,5.74s.33,3.61.48,5.29c.1,3.4.37,6.38.3,9,0,1.33,0,2.54.05,3.62s0,2.14-.05,3c0,1.77.08,3.07.14,3.88a22.9,22.9,0,0,0,1.34,5.45,50.92,50.92,0,0,0,2.51,6.5,159.13,159.13,0,0,0,7.49,15c1.44,2.58,3.1,5.18,4.67,7.65a77.5,77.5,0,0,0,5.28,7.05c3.68,4.32,8,7.85,13.09,9.14s10.46.1,15.83-3.18a37.6,37.6,0,0,0,7.7-6.39,53,53,0,0,0,6.81-8.88,74.68,74.68,0,0,0,9-21.75,85.75,85.75,0,0,0,1.7-10.73,58.54,58.54,0,0,0-.15-9.11A51.64,51.64,0,0,0,3370.38,753.35Z"/></svg>